<svg width="24" height="25" viewBox="0 0 24 25" fill="none" xmlns="http://www.w3.org/2000/svg">
<path d="M16.54 12.51C16.54 12.59 16.4 14.97 19 16.2C18.51 17.68 16.85 20.97 14.91 20.99C13.79 20.99 13.13 20.27 11.87 20.27C10.61 20.27 9.85001 20.97 8.85001 20.99C6.93001 21.05 5.08999 17.43 4.57999 15.96C4.19999 14.84 4.01001 13.75 4.01001 12.7C4.01001 9.14001 6.37001 7.38001 8.60001 7.35001C9.68001 7.35001 11.05 8.14001 11.64 8.14001C12.21 8.14001 13.75 7.2 15.17 7.31C16.66 7.43 17.8 8.02001 18.55 9.10001C17.21 9.92001 16.55 11.03 16.56 12.51H16.54ZM14.31 5.91C15.41 4.61 15.31 3.42 15.27 3C14.3 3.06 13.18 3.65999 12.54 4.39999C11.84 5.19999 11.42 6.18001 11.51 7.29001C12.56 7.37001 13.52 6.83 14.3 5.91H14.31Z" fill="white"/>
</svg>
