<svg width="24" height="24" viewBox="0 0 24 24" fill="none" xmlns="http://www.w3.org/2000/svg">
<path d="M13.2 12L9.43081 7.896C9.27619 7.73984 9.18945 7.52896 9.18945 7.3092C9.18945 7.08944 9.27619 6.87856 9.43081 6.7224C9.50674 6.6453 9.59725 6.58407 9.69706 6.54228C9.79687 6.50049 9.904 6.47897 10.0122 6.47897C10.1204 6.47897 10.2276 6.50049 10.3274 6.54228C10.4272 6.58407 10.5177 6.6453 10.5936 6.7224L15.1896 11.412C15.344 11.5685 15.4306 11.7795 15.4306 11.9994C15.4306 12.2193 15.344 12.4303 15.1896 12.5868L10.5936 17.2764C10.5177 17.3535 10.4272 17.4147 10.3274 17.4565C10.2276 17.4983 10.1204 17.5198 10.0122 17.5198C9.904 17.5198 9.79687 17.4983 9.69706 17.4565C9.59725 17.4147 9.50674 17.3535 9.43081 17.2764C9.27619 17.1202 9.18945 16.9094 9.18945 16.6896C9.18945 16.4698 9.27619 16.259 9.43081 16.1028L13.2 12Z" fill="#121212"/>
</svg>
