<svg width="24" height="24" viewBox="0 0 24 24" fill="none" xmlns="http://www.w3.org/2000/svg">
<path d="M10.8 12L14.5692 16.104C14.7238 16.2602 14.8106 16.471 14.8106 16.6908C14.8106 16.9106 14.7238 17.1214 14.5692 17.2776C14.4933 17.3547 14.4028 17.4159 14.303 17.4577C14.2031 17.4995 14.096 17.521 13.9878 17.521C13.8796 17.521 13.7725 17.4995 13.6726 17.4577C13.5728 17.4159 13.4823 17.3547 13.4064 17.2776L8.8104 12.588C8.65599 12.4315 8.56942 12.2205 8.56942 12.0006C8.56942 11.7807 8.65599 11.5697 8.8104 11.4132L13.4064 6.7236C13.4823 6.6465 13.5728 6.58527 13.6726 6.54348C13.7725 6.50169 13.8796 6.48017 13.9878 6.48017C14.096 6.48017 14.2031 6.50169 14.303 6.54348C14.4028 6.58527 14.4933 6.6465 14.5692 6.7236C14.7238 6.87976 14.8106 7.09064 14.8106 7.3104C14.8106 7.53016 14.7238 7.74104 14.5692 7.8972L10.8 12Z" fill="#121212"/>
</svg>
