<svg width="25" height="25" viewBox="0 0 25 25" fill="none" xmlns="http://www.w3.org/2000/svg">
<path d="M22 12.73C22 15.77 20.92 18.34 19.04 20.08C17.4 21.6 15.15 22.5 12.46 22.5C8.57002 22.5 5.20001 20.25 3.57001 16.98C2.89001 15.63 2.5 14.11 2.5 12.5C2.5 10.89 2.89001 9.36999 3.57001 8.01999C5.21001 4.74999 8.57002 2.5 12.46 2.5C15.15 2.5 17.4 3.48999 19.12 5.10999L16.28 7.95999C15.24 6.96999 13.93 6.45999 12.46 6.45999C9.86002 6.45999 7.66 8.22 6.87 10.59C6.67 11.19 6.54999 11.83 6.54999 12.5C6.54999 13.17 6.66 13.81 6.87 14.41C7.66 16.79 9.86002 18.54 12.46 18.54C13.8 18.54 14.94 18.17 15.84 17.57C16.89 16.86 17.59 15.82 17.83 14.59H12.46V10.83H21.84C21.94 11.44 22 12.06 22 12.72V12.73Z" fill="white"/>
</svg>
