<svg width="27" height="27" viewBox="0 0 27 27" fill="none" xmlns="http://www.w3.org/2000/svg">
<path d="M13.7499 3.39511C10.7711 3.39511 8.4043 5.77004 8.4043 8.73258C8.4043 10.928 9.69378 12.8703 11.7341 13.6865V21.5947C11.7341 21.8314 11.8075 22.0436 11.9871 22.2232L13.4072 23.5943C13.5867 23.7738 13.9295 23.8146 14.158 23.5861L16.7288 21.0153C16.9655 20.7786 16.9573 20.4358 16.7288 20.2073L15.2516 18.7465L17.3246 16.6735C17.5368 16.4531 17.5449 16.1104 17.3082 15.8737L15.2924 13.8497C17.7326 12.8132 19.0874 10.9443 19.0874 8.73258C19.0874 5.7782 16.7125 3.39511 13.7499 3.39511ZM13.7499 8.35716C12.9583 8.35716 12.3135 7.71242 12.3135 6.92078C12.3135 6.12097 12.9501 5.48439 13.7499 5.48439C14.5416 5.48439 15.1863 6.12913 15.1863 6.92078C15.1863 7.71242 14.5416 8.35716 13.7499 8.35716Z" fill="white"/>
</svg>
