<svg width="24" height="24" viewBox="0 0 24 24" fill="none" xmlns="http://www.w3.org/2000/svg">
<path d="M19.5802 12C18.8602 10.83 17.1702 7.66 17.0802 3.38C17.0702 2.75 16.5602 2.25 15.9402 2.25H8.07024C7.44024 2.25 6.94024 2.74 6.93024 3.38C6.84024 7.66 5.15024 10.84 4.43024 12.01C4.21024 12.36 4.20024 12.81 4.41024 13.17C4.61024 13.53 5.00024 13.76 5.42024 13.76H11.2702V20.26H9.52024C9.11024 20.26 8.77024 20.6 8.77024 21.01C8.77024 21.42 9.11024 21.76 9.52024 21.76H14.5202C14.9302 21.76 15.2702 21.42 15.2702 21.01C15.2702 20.6 14.9302 20.26 14.5202 20.26H12.7702V13.76H14.7702V16.01C14.7702 16.42 15.1102 16.76 15.5202 16.76C15.9302 16.76 16.2702 16.42 16.2702 16.01V13.76H18.6202C19.0402 13.76 19.4202 13.53 19.6302 13.17C19.8302 12.81 19.8202 12.37 19.6002 12.01L19.5802 12ZM8.41024 3.75H15.5802C15.6702 5.88 16.1202 7.74 16.6402 9.25H7.35024C7.88024 7.74 8.33024 5.88 8.41024 3.75ZM6.01024 12.25C6.23024 11.85 6.49024 11.34 6.76024 10.75H17.2402C17.5002 11.34 17.7602 11.85 17.9902 12.25H6.01024Z" fill="#121212"/>
</svg>
