<svg width="149" height="35" viewBox="0 0 149 35" fill="none" xmlns="http://www.w3.org/2000/svg">
<path d="M29.75 11.1921C26.944 9.62971 24.0902 8.5934 21.1885 8.08322V34.1504H11.7183V8.08322C8.75283 8.5934 5.89899 9.62971 3.15676 11.1921L0 4.30467C2.32771 2.90167 4.89457 1.83347 7.70057 1.10008C10.5385 0.366696 13.4561 0 16.4534 0C19.4507 0 22.3524 0.366696 25.1584 1.10008C27.9963 1.83347 30.5791 2.90167 32.9068 4.30467L29.75 11.1921Z" fill="white"/>
<path d="M63.8703 31.6154C62.1484 32.6039 60.0599 33.3851 57.6046 33.9591C55.1494 34.533 52.5985 34.82 49.9519 34.82C46.3806 34.82 43.3354 34.3895 40.8164 33.5286C38.3293 32.6677 36.448 31.4719 35.1725 29.9414C33.929 28.4108 33.3072 26.6411 33.3072 24.6323C33.3072 22.8785 33.7855 21.332 34.7421 19.9928C35.6986 18.6536 37.0219 17.6173 38.7119 16.8839C37.4046 16.2143 36.4002 15.2896 35.6987 14.1098C35.029 12.8981 34.6942 11.5748 34.6942 10.1399C34.6942 8.29048 35.2682 6.6005 36.4161 5.06995C37.5959 3.5394 39.3815 2.31177 41.773 1.38706C44.1645 0.462355 47.114 0 50.6215 0C52.8217 0 54.9899 0.207262 57.1263 0.621786C59.2627 1.03631 61.144 1.59432 62.7702 2.29583L60.1874 9.37462C57.222 8.06727 54.1609 7.4136 51.0041 7.4136C48.7402 7.4136 47.0502 7.71652 45.9342 8.32236C44.8182 8.89632 44.2602 9.70943 44.2602 10.7617C44.2602 12.6749 45.6472 13.6315 48.4213 13.6315H57.8916V20.8537H47.7995C46.1733 20.8537 44.9457 21.1248 44.1167 21.6668C43.2876 22.177 42.8731 22.9423 42.8731 23.9627C42.8731 25.0468 43.4789 25.8918 44.6906 26.4976C45.9023 27.1035 47.7836 27.4064 50.3345 27.4064C52.1521 27.4064 54.0174 27.1673 55.9306 26.689C57.8757 26.1788 59.5656 25.4932 61.0005 24.6323L63.8703 31.6154Z" fill="white"/>
<path d="M104.831 0C108.785 0 111.862 1.1798 114.062 3.5394C116.294 5.86711 117.41 9.24707 117.41 13.6793V34.1504H107.94V13.9663C107.94 11.9574 107.414 10.4428 106.361 9.42245C105.309 8.3702 103.906 7.84407 102.152 7.84407C100.271 7.84407 98.7723 8.40208 97.6563 9.51811C96.5721 10.6022 96.0301 12.2444 96.0301 14.4446V34.1504H86.5598V13.9663C86.5598 11.9574 86.0656 10.4428 85.0771 9.42245C84.1205 8.3702 82.7972 7.84407 81.1072 7.84407C79.2897 7.84407 77.8389 8.40208 76.7547 9.51811C75.6706 10.6022 75.1285 12.2444 75.1285 14.4446V34.1504H65.6582V0.669616H74.8415V4.40033C75.8619 2.96544 77.1693 1.8813 78.7636 1.14791C80.3898 0.382637 82.2711 0 84.4075 0C86.6076 0 88.5208 0.398583 90.147 1.19575C91.8051 1.99291 93.1443 3.15676 94.1647 4.68731C95.3126 3.15676 96.8113 1.99291 98.6607 1.19575C100.51 0.398583 102.567 0 104.831 0Z" fill="white"/>
<path d="M133.366 34.82C130.656 34.82 128.025 34.4852 125.474 33.8156C122.923 33.146 120.85 32.2531 119.256 31.1371L122.365 24.154C123.864 25.1425 125.602 25.9396 127.578 26.5455C129.555 27.1513 131.501 27.4542 133.414 27.4542C137.049 27.4542 138.866 26.5455 138.866 24.7279C138.866 23.7713 138.34 23.0698 137.288 22.6234C136.268 22.1451 134.609 21.6509 132.314 21.1407C129.795 20.5986 127.69 20.0247 126 19.4188C124.31 18.7811 122.859 17.7767 121.648 16.4056C120.436 15.0345 119.83 13.185 119.83 10.8573C119.83 8.81661 120.388 6.98313 121.504 5.35692C122.62 3.69883 124.278 2.39149 126.478 1.43489C128.71 0.478299 131.437 0 134.657 0C136.857 0 139.026 0.255093 141.162 0.765277C143.298 1.24357 145.18 1.96102 146.806 2.91761L143.888 9.94857C140.7 8.22671 137.607 7.36577 134.609 7.36577C132.728 7.36577 131.357 7.65275 130.496 8.2267C129.635 8.76877 129.205 9.48622 129.205 10.379C129.205 11.2719 129.715 11.9415 130.735 12.3879C131.756 12.8343 133.398 13.2966 135.662 13.7749C138.213 14.317 140.317 14.9069 141.975 15.5446C143.665 16.1505 145.116 17.139 146.328 18.5101C147.571 19.8493 148.193 21.6828 148.193 24.0105C148.193 26.0193 147.635 27.8369 146.519 29.4631C145.403 31.0893 143.729 32.3966 141.497 33.3851C139.265 34.3417 136.555 34.82 133.366 34.82Z" fill="white"/>
</svg>
