<svg width="24" height="24" viewBox="0 0 24 24" fill="none" xmlns="http://www.w3.org/2000/svg">
<path d="M19.32 15.03C17.33 14.09 17.28 12.38 17.29 12.05V12.02C17.29 10.82 17.8 9.93999 18.92 9.24999C19.1 9.13999 19.22 8.97 19.26 8.76C19.3 8.56 19.26 8.34999 19.14 8.17999C18.26 6.90999 16.94 6.2 15.21 6.07C15.04 6.06 14.87 6.06998 14.69 6.07998C14.75 6.01998 14.81 5.97 14.87 5.91C16.16 4.38 16.05 2.94 16.01 2.45C15.98 2.04 15.62 1.73 15.22 1.76C14.07 1.83 12.76 2.49 11.97 3.41C11.13 4.36 10.73 5.47 10.76 6.63C10.12 6.4 9.31997 6.10998 8.55997 6.10998C5.90997 6.14998 3.22998 8.25998 3.22998 12.21C3.22998 13.34 3.43998 14.52 3.84998 15.72C4.34998 17.17 6.31997 21.26 8.77997 21.26C8.79997 21.26 8.82998 21.26 8.84998 21.26C9.43998 21.25 9.91997 21.06 10.38 20.88C10.84 20.7 11.28 20.54 11.85 20.54C12.36 20.54 12.75 20.69 13.2 20.87C13.67 21.05 14.21 21.26 14.91 21.26C17.42 21.22 19.22 17.41 19.7 15.95C19.82 15.59 19.65 15.2 19.31 15.04L19.32 15.03ZM13.11 4.39001C13.45 4.00001 13.96 3.65 14.48 3.45C14.4 3.87 14.19 4.37998 13.73 4.92998C13.39 5.32998 12.9 5.76998 12.3 5.95998C12.4 5.40998 12.68 4.88001 13.11 4.39001ZM14.91 19.75C14.51 19.75 14.18 19.62 13.76 19.46C13.25 19.26 12.66 19.03 11.87 19.03C11.03 19.03 10.38 19.28 9.86996 19.47C9.48996 19.61 9.16996 19.74 8.82996 19.75C8.82996 19.75 8.80996 19.75 8.79996 19.75C7.60996 19.75 5.92998 17.08 5.28998 15.23C4.93998 14.19 4.75998 13.17 4.75998 12.21C4.75998 9.08998 6.75998 7.63998 8.59998 7.60998C9.07998 7.60998 9.71997 7.83998 10.28 8.04998C10.82 8.24998 11.25 8.39999 11.64 8.39999C11.98 8.39999 12.35 8.26 12.86 8.07C13.53 7.82 14.37 7.49999 15.11 7.55999C16.09 7.63999 16.86 7.93999 17.44 8.46999C16.35 9.37999 15.8 10.57 15.8 12C15.79 12.46 15.85 14.66 18.08 16.05C17.4 17.72 16.05 19.73 14.92 19.75H14.91Z" fill="#121212"/>
</svg>
