<svg width="24" height="24" viewBox="0 0 24 24" fill="none" xmlns="http://www.w3.org/2000/svg">
<path d="M8 22.5H16C16.825 22.5 17.5 21.825 17.5 21V8.5C17.5 8.225 17.275 8 17 8V7C17 6.45 16.55 6 16 6H15.94C15.74 5.025 14.965 4.25 14 4.05V3.5C14 2.395 13.105 1.5 12 1.5C10.895 1.5 10 2.395 10 3.5V4.05C9.035 4.25 8.26 5.025 8.06 6H8C7.45 6 7 6.45 7 7V8C6.725 8 6.5 8.225 6.5 8.5V21C6.5 21.825 7.175 22.5 8 22.5ZM10.5 5C10.775 5 11 4.775 11 4.5V3.5C11 2.95 11.45 2.5 12 2.5C12.55 2.5 13 2.95 13 3.5V4.5C13 4.775 13.225 5 13.5 5C14.14 5 14.705 5.415 14.915 6H9.085C9.295 5.415 9.86 5 10.5 5ZM8 7H16V8H8V7ZM7.5 9H16.5V21C16.5 21.275 16.275 21.5 16 21.5H8C7.725 21.5 7.5 21.275 7.5 21V9Z" fill="#121212"/>
<path d="M8.25 10.75H9.25C9.525 10.75 9.75 10.525 9.75 10.25C9.75 9.975 9.525 9.75 9.25 9.75H8.25C7.975 9.75 7.75 9.975 7.75 10.25C7.75 10.525 7.975 10.75 8.25 10.75ZM8.25 12.75H9.25C9.525 12.75 9.75 12.525 9.75 12.25C9.75 11.975 9.525 11.75 9.25 11.75H8.25C7.975 11.75 7.75 11.975 7.75 12.25C7.75 12.525 7.975 12.75 8.25 12.75ZM8.25 14.75H9.25C9.525 14.75 9.75 14.525 9.75 14.25C9.75 13.975 9.525 13.75 9.25 13.75H8.25C7.975 13.75 7.75 13.975 7.75 14.25C7.75 14.525 7.975 14.75 8.25 14.75ZM8.25 16.75H9.25C9.525 16.75 9.75 16.525 9.75 16.25C9.75 15.975 9.525 15.75 9.25 15.75H8.25C7.975 15.75 7.75 15.975 7.75 16.25C7.75 16.525 7.975 16.75 8.25 16.75ZM8.25 18.75H9.25C9.525 18.75 9.75 18.525 9.75 18.25C9.75 17.975 9.525 17.75 9.25 17.75H8.25C7.975 17.75 7.75 17.975 7.75 18.25C7.75 18.525 7.975 18.75 8.25 18.75ZM8.25 20.75H9.25C9.525 20.75 9.75 20.525 9.75 20.25C9.75 19.975 9.525 19.75 9.25 19.75H8.25C7.975 19.75 7.75 19.975 7.75 20.25C7.75 20.525 7.975 20.75 8.25 20.75Z" fill="#121212"/>
</svg>
