<svg width="24" height="24" viewBox="0 0 24 24" fill="none" xmlns="http://www.w3.org/2000/svg">
<path d="M20.6 3.89999L16.27 2.32001C15.96 2.21001 15.6 2.22 15.3 2.37C15 2.52 14.77 2.77 14.67 3.09C14.36 4.01 13.65 5.10001 12.01 5.10001C10.37 5.10001 9.66002 4.01 9.35002 3.09C9.24002 2.77 9.02002 2.52001 8.72002 2.38001C8.42002 2.23001 8.06002 2.22 7.75002 2.33L3.42002 3.91C2.73002 4.16 2.27002 4.82 2.27002 5.55V8.67999C2.27002 9.22999 2.52002 9.74 2.97002 10.08C3.41002 10.41 3.97002 10.52 4.50002 10.37L5.77002 10.01V19.52C5.77002 20.76 6.78002 21.77 8.02002 21.77H16.02C17.26 21.77 18.27 20.76 18.27 19.52V10.01L19.54 10.37C20.07 10.52 20.63 10.42 21.07 10.08C21.51 9.75 21.77 9.23999 21.77 8.67999V5.55C21.77 4.82 21.31 4.16 20.62 3.91L20.6 3.89999ZM20.25 8.67C20.25 8.78 20.19 8.83999 20.15 8.87C20.11 8.9 20.03 8.94 19.93 8.91L17.7 8.27C17.47 8.21 17.23 8.25 17.04 8.39C16.85 8.53 16.74 8.75001 16.74 8.99001V19.49C16.74 19.9 16.4 20.24 15.99 20.24H7.99002C7.58002 20.24 7.24002 19.9 7.24002 19.49V8.99001C7.24002 8.75001 7.13002 8.53 6.94002 8.39C6.81002 8.29 6.65002 8.24001 6.49002 8.24001C6.42002 8.24001 6.35002 8.24 6.28002 8.27L4.05002 8.91C3.95002 8.94 3.87002 8.9 3.83002 8.87C3.79002 8.83999 3.73002 8.78 3.73002 8.67V5.53999C3.73002 5.43999 3.80002 5.34 3.89002 5.3L7.99002 3.81C8.39002 4.81 9.45002 6.58 11.98 6.58C14.51 6.58 15.57 4.8 15.97 3.81L20.07 5.3C20.17 5.34 20.23 5.42999 20.23 5.53999V8.67H20.25Z" fill="#121212"/>
</svg>
