<svg width="24" height="24" viewBox="0 0 24 24" fill="none" xmlns="http://www.w3.org/2000/svg">
<path d="M20.75 13.5C20.75 11.16 18.84 9.25 16.5 9.25H4.5C3.81 9.25 3.25 9.81 3.25 10.5V18C3.25 20.42 4.58 21.75 7 21.75H13C15.42 21.75 16.75 20.42 16.75 18V17.72C18.98 17.59 20.75 15.75 20.75 13.5ZM15.25 18C15.25 19.58 14.58 20.25 13 20.25H7C5.42 20.25 4.75 19.58 4.75 18V10.75H15.25V18ZM16.75 16.22V10.77C18.15 10.9 19.25 12.06 19.25 13.49C19.25 14.92 18.15 16.09 16.75 16.21V16.22ZM11.82 5.37C11.07 4.61 11.07 3.37 11.82 2.62L11.97 2.47C12.26 2.18 12.74 2.18 13.03 2.47C13.32 2.76 13.33 3.24 13.03 3.53L12.88 3.67999C12.7 3.85999 12.7 4.14001 12.88 4.32001L13.18 4.62C13.93 5.38 13.93 6.62 13.18 7.37L13.03 7.52001C12.88 7.67001 12.69 7.74001 12.5 7.74001C12.31 7.74001 12.12 7.67001 11.97 7.52001C11.68 7.23001 11.67 6.75001 11.97 6.46001L12.12 6.31C12.3 6.13 12.3 5.85 12.12 5.67L11.82 5.37ZM6.82001 5.37C6.07001 4.61 6.07001 3.37 6.82001 2.62L6.97 2.47C7.26 2.18 7.74 2.18 8.03 2.47C8.32 2.76 8.33 3.24 8.03 3.53L7.88 3.67999C7.70001 3.85999 7.70001 4.14001 7.88 4.32001L8.17999 4.62C8.92999 5.38 8.92999 6.62 8.17999 7.37L8.03 7.52001C7.88 7.67001 7.69 7.74001 7.5 7.74001C7.31 7.74001 7.12 7.67001 6.97 7.52001C6.68 7.23001 6.67 6.75001 6.97 6.46001L7.12 6.31C7.29999 6.13 7.29999 5.85 7.12 5.67L6.82001 5.37Z" fill="#121212"/>
</svg>
