<svg width="24" height="24" viewBox="0 0 24 24" fill="none" xmlns="http://www.w3.org/2000/svg">
<path d="M12 16.3425C11.5609 15.9604 10.9945 15.7569 10.4127 15.7722C9.83086 15.7874 9.27591 16.0204 8.8575 16.425C8.63974 16.6349 8.46653 16.8865 8.34822 17.1649C8.22992 17.4432 8.16894 17.7426 8.16894 18.045C8.16894 18.3474 8.22992 18.6468 8.34822 18.9251C8.46653 19.2035 8.63974 19.4551 8.8575 19.665L11.4675 22.2825C11.5372 22.3528 11.6202 22.4086 11.7116 22.4467C11.803 22.4847 11.901 22.5043 12 22.5043C12.099 22.5043 12.197 22.4847 12.2884 22.4467C12.3798 22.4086 12.4628 22.3528 12.5325 22.2825L13.0275 21.78C13.1556 21.6402 13.226 21.4571 13.2246 21.2675C13.2232 21.078 13.15 20.8959 13.0198 20.7581C12.8896 20.6203 12.712 20.5369 12.5228 20.5248C12.3336 20.5126 12.1468 20.5725 12 20.6925L9.915 18.6C9.83644 18.5297 9.77359 18.4435 9.73056 18.3473C9.68754 18.251 9.6653 18.1467 9.6653 18.0413C9.6653 17.9358 9.68754 17.8315 9.73056 17.7352C9.77359 17.639 9.83644 17.5528 9.915 17.4825C10.0625 17.3359 10.262 17.2537 10.47 17.2537C10.678 17.2537 10.8775 17.3359 11.025 17.4825L11.46 17.9175C11.5297 17.9878 11.6127 18.0436 11.7041 18.0817C11.7955 18.1197 11.8935 18.1393 11.9925 18.1393C12.0915 18.1393 12.1895 18.1197 12.2809 18.0817C12.3723 18.0436 12.4553 17.9878 12.525 17.9175L12.96 17.4825C13.0303 17.4039 13.1165 17.3411 13.2127 17.2981C13.309 17.255 13.4133 17.2328 13.5187 17.2328C13.6242 17.2328 13.7285 17.255 13.8248 17.2981C13.921 17.3411 14.0072 17.4039 14.0775 17.4825C14.1525 17.5539 14.2118 17.6401 14.2519 17.7357C14.2919 17.8312 14.3117 17.934 14.31 18.0375C14.3086 18.2481 14.2252 18.4499 14.0775 18.6L13.6425 19.035C13.5196 19.1785 13.4554 19.363 13.4627 19.5518C13.47 19.7405 13.5483 19.9196 13.6818 20.0532C13.8154 20.1867 13.9945 20.265 14.1832 20.2723C14.372 20.2796 14.5565 20.2154 14.7 20.0925L15.135 19.6575C15.3516 19.4477 15.5238 19.1965 15.6414 18.9189C15.7591 18.6412 15.8197 18.3428 15.8197 18.0413C15.8197 17.7397 15.7591 17.4413 15.6414 17.1636C15.5238 16.886 15.3516 16.6348 15.135 16.425C14.717 16.0225 14.1636 15.7909 13.5835 15.7756C13.0034 15.7603 12.4386 15.9625 12 16.3425ZM21.75 1.5C21.5511 1.5 21.3603 1.57902 21.2197 1.71967C21.079 1.86032 21 2.05109 21 2.25V3.51C21.0041 6.01511 20.0909 8.43505 18.4328 10.3129C16.7746 12.1907 14.4864 13.3965 12 13.7025C9.51365 13.3965 7.22538 12.1907 5.56725 10.3129C3.90912 8.43505 2.9959 6.01511 3 3.51V2.25C3 2.05109 2.92098 1.86032 2.78033 1.71967C2.63968 1.57902 2.44891 1.5 2.25 1.5C2.05109 1.5 1.86032 1.57902 1.71967 1.71967C1.57902 1.86032 1.5 2.05109 1.5 2.25V3.8175C1.56886 6.65325 2.66168 9.36828 4.57656 11.461C6.49144 13.5537 9.09899 14.8827 11.9175 15.2025H12.0825C14.901 14.8827 17.5086 13.5537 19.4234 11.461C21.3383 9.36828 22.4311 6.65325 22.5 3.8175V3.75V2.25C22.5 2.05109 22.421 1.86032 22.2803 1.71967C22.1397 1.57902 21.9489 1.5 21.75 1.5Z" fill="black"/>
</svg>
