<svg width="24" height="24" viewBox="0 0 24 24" fill="none" xmlns="http://www.w3.org/2000/svg">
<path d="M15.75 6C16.1642 6 16.5 5.66421 16.5 5.25C16.5 4.83579 16.1642 4.5 15.75 4.5C15.3358 4.5 15 4.83579 15 5.25C15 5.66421 15.3358 6 15.75 6Z" fill="#121212"/>
<path d="M18 4.5C18.4142 4.5 18.75 4.16421 18.75 3.75C18.75 3.33579 18.4142 3 18 3C17.5858 3 17.25 3.33579 17.25 3.75C17.25 4.16421 17.5858 4.5 18 4.5Z" fill="#121212"/>
<path d="M18 7.5C18.4142 7.5 18.75 7.16421 18.75 6.75C18.75 6.33579 18.4142 6 18 6C17.5858 6 17.25 6.33579 17.25 6.75C17.25 7.16421 17.5858 7.5 18 7.5Z" fill="#121212"/>
<path d="M20.25 3C20.6642 3 21 2.66421 21 2.25C21 1.83579 20.6642 1.5 20.25 1.5C19.8358 1.5 19.5 1.83579 19.5 2.25C19.5 2.66421 19.8358 3 20.25 3Z" fill="#121212"/>
<path d="M20.25 9C20.6642 9 21 8.66421 21 8.25C21 7.83579 20.6642 7.5 20.25 7.5C19.8358 7.5 19.5 7.83579 19.5 8.25C19.5 8.66421 19.8358 9 20.25 9Z" fill="#121212"/>
<path d="M20.25 6C20.6642 6 21 5.66421 21 5.25C21 4.83579 20.6642 4.5 20.25 4.5C19.8358 4.5 19.5 4.83579 19.5 5.25C19.5 5.66421 19.8358 6 20.25 6Z" fill="#121212"/>
<path fill-rule="evenodd" clip-rule="evenodd" d="M8.25 3.75C8.25 3.33579 8.58579 3 9 3H12.75C13.1642 3 13.5 3.33579 13.5 3.75V7.65C13.5 8.06421 13.1642 8.4 12.75 8.4C12.3358 8.4 12 8.06421 12 7.65V4.5H9.75V7.65C9.75 8.06421 9.41421 8.4 9 8.4C8.58579 8.4 8.25 8.06421 8.25 7.65V3.75Z" fill="#121212"/>
<path fill-rule="evenodd" clip-rule="evenodd" d="M10.875 8.25C7.35418 8.25 4.5 11.1042 4.5 14.625C4.5 18.1458 7.35418 21 10.875 21C14.3958 21 17.25 18.1458 17.25 14.625C17.25 11.1042 14.3958 8.25 10.875 8.25ZM3 14.625C3 10.2758 6.52576 6.75 10.875 6.75C15.2242 6.75 18.75 10.2758 18.75 14.625C18.75 18.9742 15.2242 22.5 10.875 22.5C6.52576 22.5 3 18.9742 3 14.625Z" fill="#121212"/>
<path fill-rule="evenodd" clip-rule="evenodd" d="M6.75 13.6252C6.75 12.287 7.86782 11.25 9.1875 11.25C9.82312 11.25 10.4252 11.4988 10.875 11.8938C11.3248 11.4988 11.9269 11.25 12.5625 11.25C13.8822 11.25 15 12.287 15 13.6252C15 15.2733 14.0326 16.5523 13.1492 17.3706C12.6987 17.7879 12.2426 18.1118 11.8815 18.3335C11.701 18.4443 11.5381 18.5333 11.4054 18.5975C11.3399 18.6291 11.2738 18.6586 11.2115 18.6821C11.1808 18.6937 11.1423 18.7072 11.0999 18.7187C11.0714 18.7265 10.984 18.75 10.875 18.75C10.766 18.75 10.6786 18.7265 10.6501 18.7187C10.6077 18.7072 10.5692 18.6937 10.5385 18.6821C10.4762 18.6586 10.4101 18.6291 10.3446 18.5975C10.2119 18.5333 10.049 18.4443 9.86853 18.3335C9.50743 18.1118 9.05132 17.7879 8.60077 17.3706C7.71744 16.5523 6.75 15.2733 6.75 13.6252ZM9.1875 12.75C8.64268 12.75 8.25 13.168 8.25 13.6252C8.25 14.6645 8.86731 15.5728 9.62011 16.2701C9.98762 16.6106 10.3624 16.8765 10.6534 17.0552C10.7369 17.1065 10.8115 17.1493 10.875 17.1838C10.9385 17.1493 11.0131 17.1065 11.0966 17.0552C11.3876 16.8765 11.7624 16.6106 12.1299 16.2701C12.8827 15.5728 13.5 14.6645 13.5 13.6252C13.5 13.168 13.1073 12.75 12.5625 12.75C12.058 12.75 11.669 13.1317 11.6084 13.4152C11.5345 13.7612 11.2288 14.0085 10.875 14.0085C10.5212 14.0085 10.2155 13.7612 10.1416 13.4152C10.081 13.1317 9.692 12.75 9.1875 12.75Z" fill="#121212"/>
</svg>
